<svg xmlns="http://www.w3.org/2000/svg" width="75.971" height="28" viewBox="0 0 75.971 28"><path d="M18.741,13.873a7.073,7.073,0,0,1,6.088-7,6.975,6.975,0,0,0-2.263-4.826A9.579,9.579,0,0,0,16,0H0V28H16.261A10.314,10.314,0,0,0,23.3,25.783a7.378,7.378,0,0,0,2.442-4.839,7.072,7.072,0,0,1-7.006-7.071M8.87,6.435h4.478a2.907,2.907,0,0,1,2.022.587A2.177,2.177,0,0,1,16,8.7q0,2.261-2.522,2.261H8.87Zm4.783,15.174H8.87v-4.7h4.7q2.739,0,2.739,2.261,0,2.435-2.652,2.435" transform="translate(0 0)"/><path d="M92.437,28V17.783L82.349,0h9.739l5.043,9.739L102.176,0h9.739l-10.13,17.783V28Z" transform="translate(-58.48 0)"/><path d="M154.1,28,164.838,0h9.783L185.4,28h-9.739l-2.174-5.565h-7.521L163.838,28Zm13-12.087h5.261L169.708,9.13Z" transform="translate(-109.433)"/></svg>